<svg xmlns="http://www.w3.org/2000/svg" viewBox="0 0 236.73 256.78"><defs><style>.cls-1,.cls-3,.cls-6{opacity:0.8;}.cls-2{fill:#939598;}.cls-3{fill:#77787b;}.cls-4,.cls-5{fill:#888a8c;}.cls-5{opacity:0.7;}.cls-6{fill:#6d6e71;}</style></defs><title>AceVel Team_1</title><g id="Layer_2" data-name="Layer 2"><g id="Layer_2-2" data-name="Layer 2"><g class="cls-1"><path class="cls-2" d="M109.77,221.43c-3.48-13.89-7.82-27.69-12.53-41.86q-3.55-10.68-7.15-21.52-1.78-5.46-3.53-11l-.87-2.78-.43-1.39-.22-.8-.86-3.2a.42.42,0,0,1-.24.12.72.72,0,0,1-.56-.37,1.7,1.7,0,0,1-.27-.84c-.11-1.68-.34-3.64-.62-5.93q-.58-2.61-1.18-5.22c-.38-1.77-.77-3.54-1.15-5.3.62,3,1.19,6,1.75,8.9a6.15,6.15,0,0,1-.1,2.83c-.24.75-.53.95-.66.34-.37-1.78-.77-3.62-1.16-5.46-.18-1-.35-2-.53-3.12s-.35-2.35-.49-3.78c-.09-.85-.17-1.68-.26-2.5,0-.47-.09-.94-.14-1.41l-.07-.75c0-.05,0-.15,0-.16h0a1.68,1.68,0,0,1-.66-.71c-1.16,9.15-2.29,18.73-2.54,24.52-.11,1-.2,2-.27,2.91-.32,1.86-.65,3.71-1,5.56-.69,3.74-1.39,7.47-2.15,11.19-1.52,7.44-3.2,14.82-5.12,22.16a3,3,0,0,1-.68,1.45c-.29.32-.43.13-.33-.4,1.71-7.71,3.23-15.59,4.62-23.63q1-6,2-12.16c.16-1,.31-2.05.47-3.07l.23-1.54.07-.95.18-2c0-.32.07-.71.09-1l.05-.88c.35-4.82,1-11.09,1.83-18S77,105.24,77.92,98.23c.25,1.48.5,2.94.75,4.4h0l-.6-5.3L77.91,96l-.08-.68c0-.09,0-.07,0,0l0,.06,0,.11-.31,1c-.42,1.38-.89,3.06-1.39,5a36.38,36.38,0,0,1-.25,4.4l-1.07,8.54a3.2,3.2,0,0,1,.16.65,13.68,13.68,0,0,1,0,3.73c-1,5.47-1.94,10.92-3.13,16.14a1.72,1.72,0,0,1-.09.36l-.44,2.54-.51,2.69-.25,1.33-.37,1.72L69.33,147c-1.07,4.64-2.22,9.28-3.51,13.89a244.78,244.78,0,0,1-9.28,27.32,207.64,207.64,0,0,1-12.92,26.17,174.41,174.41,0,0,1-17.09,24.11,3.59,3.59,0,0,1-1.23,1.32c-.43.23-.55,0-.27-.46-.13-.09-.4-.13-.29-.28a204.45,204.45,0,0,0,11.33-18.39c3.46-6.27,6.75-12.71,10.15-19.56q3.49-7.08,6.46-14.31c-1.31,2.36-2.63,4.65-4,6.77a67.54,67.54,0,0,1-4.31,5.95c-6,12-13.2,23.87-22.53,33.08l.54-.25c-.75.9-1.66,1.54-1.95,1.32s0-1.05.78-2c14.32-19.66,25-41.78,32.73-65.11,1.94-5.84,3.67-11.76,5.27-17.73.81-3,1.54-6,2.28-9L62.79,134c.46-1.92.91-4.22,1.37-6.39,1.82-8.81,3.44-18,5-28.1s3-20.41,4.54-31.05q1-7.56,2.11-15.08l.52-3.73a2.07,2.07,0,0,1,.25-1l.25-.55,1-2.21c.9,5.52,2.3,13.2,3.54,20.3,1.25,7.25,2.62,14.35,3.92,21.6l1,5.35,1,4.74,1.92,9.49c.6,3.4,1.37,5.74,2.08,8.4l2.15,7.82c.16.55.3,1.1.43,1.63l.35,1.43a21.64,21.64,0,0,1,.43,2.48c.17,1.46.06,2.46-.32,2.71s-1-.23-1.59-1.15a14.83,14.83,0,0,1-1.78-4.07L89,120.44l-.93-3.1-.23-.78-.21-.86L87.21,114l-1.68-6.88-.84-3.4-.8-3.66c-1-4.9-2.19-9.63-3.09-14.37s-2-9.44-2.61-13.33q-.39-.64-.78-1.35l-.19-.37-.1-.18-.05-.09,0,0s0,0,0,0l-.39,2.82q-.77,5.6-1.54,11.21c-1.57,11.16-3.18,21.92-4.92,32,1.55-7.31,3-14.13,4.39-19.46q.93-6.6,1.86-13.29c.15-1.08.31-2.16.46-3.25l.24-1.61.12-.8s0-.18,0-.15l0,.13.06.27c.32,1.49.65,3,1,4.5s.46,3.13.77,4.8l.93,5.11,1,5.86c.37,1.93.79,3.81,1.17,5.67s.76,3.65,1.15,5.47.81,3.46,1.21,5.15c1.59,6.74,3.33,12.73,5.11,18.6.91,2.93,1.79,5.79,2.78,8.7s2,5.84,3,8.77c2.11,5.84,4.35,11.72,6.81,17.68,4.7,11.56,9.32,21.47,13.46,31.52,2.13,5,3.93,10.11,5.71,15.39.78,2.68,1.55,5.4,2.29,8.19.42,1.39.63,2.84.94,4.28s.55,2.93.82,4.43a4.84,4.84,0,0,1-.08,2.67c-.26.44-.63,0-.85-1-.63-2.85-1.26-5.67-1.88-8.48s-1.57-5.46-2.34-8.15l-.6-2c-.21-.66-.46-1.32-.68-2l-1.39-3.93-1.38-3.91c-.52-1.29-1-2.58-1.54-3.87-4.06-10.31-8.68-20.48-13.6-31.52q-3.9-8.79-7.29-17.59c-1.14-2.93-2.22-5.89-3.28-8.85l-.79-2.22-.64-1.91L88,135.7c-.86-2.58-1.52-5-2.27-7.5s-1.4-5.14-2.09-7.85-1.34-5.53-2-8.45c-.31-1.45-.67-2.93-1-4.44s-.57-3-.86-4.59-.66-3.3-.91-5c1,7.24,1.89,13.85,2.79,19.57l.71,3.13.77,3.08c.51,2,1,4,1.52,6l1.53,5.71,1.68,5.88.21.74.3,1,.61,1.94,1.22,3.89q1.23,3.87,2.48,7.75,2.53,7.76,5.15,15.51c1.38,4,2.74,8,4.09,11.91.66,2,1.4,3.92,2,5.89l1.92,5.89c.68,2,1.22,3.94,1.79,5.92s1.15,4,1.66,6l1.38,6c.22,1,.45,2,.65,3l.47,3.07c.42,2.07.28,4.09-.3,4.56S110.18,223.47,109.77,221.43ZM60.91,159.81l2.31-11a257,257,0,0,1-14.56,41.77A147.16,147.16,0,0,0,60.91,159.81Z"/><path class="cls-2" d="M47.84,173.63A81.44,81.44,0,0,0,55,150.72c0-.36,0-.6-.19-.46a1.68,1.68,0,0,0-.42,1c-.94,7.24-3.65,15-6.92,22-.18.42-.24.81-.12.89S47.68,174,47.84,173.63Z"/><path class="cls-2" d="M55.53,145.29c.21-1.39.41-2.79.61-4.2s.34-2.39.83-5.09l1.29-7.06c.47-2.77,1-5.55,1.42-8.33s.94-5.8,1.42-8.78,1-6,1.41-9.21.93-6.43,1.4-9.66q.7-5.08,1.4-10.18c1.9-13.75,4-28,6-41.63q1.51-9.9,3-19.86l.76-4.79.35-2.18.33-1.93,1.32-7.56Q79,17.33,81,29.89q2.08,13.52,4.15,26.88,1,6.51,2,13l1,6.4q.45,2.75.92,5.49l1.8,10.6.89,5.23.45,2.59.22,1.3a10.32,10.32,0,0,0,.23,1.18q2.06,8,4.11,15.89l.51,2,.25,1,.26.82,1,3.29,2,6.53,1,3.26.85,2.64,1.29,3.89c1.73,5.18,3.61,10.41,5.58,15.69,2.6,7,5.26,13.9,8.21,20.22.23.55.52.81.62.55a2.59,2.59,0,0,0-.25-1.55c-2.8-6.72-5.47-13.45-8-20.25-1.26-3.4-2.47-6.78-3.65-10.21l-1.71-5.12-.85-2.56-1-3.09-2.79-9L98.78,122l-.35-1.14-.17-.59-.18-.68-.71-2.72-2.84-11c-.47-1.87-1-3.67-1.42-5.61l-1.23-7.26L89.39,78.26l-.62-3.7-.68-4.29-1.37-8.84Q83.9,43.49,81.1,25.62,79.06,12.81,77,0q-1.41,9.12-2.81,18.22Q72.66,28.63,71.1,39c-2.1,14.2-4.21,29-6.17,43.16C63,96.58,61.09,109.36,59.1,121.1l-1.47,8.44-1.32,7.23L56,138.38l-.16,1.06-.32,2.12c-.2,1.42-.41,2.82-.61,4.23,0,.33.05.55.2.46A2.16,2.16,0,0,0,55.53,145.29Z"/><path class="cls-2" d="M101.67,135.91q-1.56-4.57-3.11-9.12L97,122.26c-.51-1.66-1-3.52-1.52-5.26l-3-10.61-.37-1.32a10.92,10.92,0,0,1-.36-1.47l-.64-3.38-1.29-6.79-1.28-6.84-.64-3.44-.32-1.77-.34-2q-1.35-8.3-2.7-16.63c-.45-2.87-.91-5.74-1.36-8.61s-.92-6-1.37-9q-1.4-9.47-2.81-19-.89-6.18-1.75-12.28c-.49,2-1,4.25-1.48,6.69l-.19.92-.09.5-.11.65L75,25.23l-.84,5.45C73,38.15,71.9,46.41,70.82,55.27,69.1,69.47,67.62,82.5,66.14,94l-.56,4.3c-.19,1.36-.39,2.72-.58,4.09-.4,2.69-.8,5.36-1.22,8-.9,5-1.81,10.1-3,15a3.9,3.9,0,0,0-.15,1.63c.1.12.3-.26.46-.89,1.3-5.16,2.32-10.47,3.31-15.9.45-2.84.91-5.66,1.36-8.48s.84-6,1.27-9c1.7-13.12,3.4-26.24,5.15-39.78.88-6.62,1.8-13.14,2.68-19.23l.67-4.57L75.7,28l.15-.74.3-1.46,1.2-5.64Q80.16,37.79,83,55.32q1.45,8.93,2.9,17.83l1.43,8.78L87.46,83l.17.93L88,85.79l.67,3.7Q90,96.8,91.36,104.11l.17.9c0,.31.13.5.19.76l.39,1.43.79,2.85,1.6,5.69,1.62,5.68c.27,1,.54,1.78.82,2.58l.83,2.43c1.12,3.23,2.26,6.47,3.44,9.76.26.76.54,1.19.65,1.11S101.9,136.58,101.67,135.91Z"/><path class="cls-2" d="M78.25,126.77a57.34,57.34,0,0,0-1.54,8.51,28,28,0,0,0-.19,4.82,32.54,32.54,0,0,1-.26,7.79c0,.45.13.55.32.3A2.71,2.71,0,0,0,77,147c.09-1,.2-2.05.32-3.08l0-.2v-.13l0-.14,0-.29,0-.61c0-.42,0-.86,0-1.31a6.34,6.34,0,0,1-.11-.81,20.65,20.65,0,0,1,.17-3.79c.16-1.3.39-2.53.61-3.58s.43-1.92.62-2.7a16.76,16.76,0,0,0,0-2C78.39,127.3,78.31,126.63,78.25,126.77Z"/><path class="cls-2" d="M48.89,178.4c3.15-7.72,6-15.61,8.34-23.59,1.19-4,2.28-8,3.21-12l.7-3,.84-3.94c.28-1.37.56-2.74.83-4.11s.55-3,.82-4.56c2.65-11.27,4.72-22.75,6.6-36a21,21,0,0,0,.21-5.23c-.17-1.11-.56-.43-.87,1.52-.54,3.4-1.1,6.72-1.67,10L67,102.35l-.87,4.87a2.42,2.42,0,0,0-.19-.84c1.91-12,3.79-25.12,5.7-38L74.49,49.1l1.37-9.47L76,38.45l.16-.59.31-1.16.63-2.36a17.26,17.26,0,0,0,.28-3.86c0-1.61-.2-2.19-.39-1.42l-.68,2.76a26.58,26.58,0,0,0-.71,3.53l-1.5,10.12q-1.53,10.47-3,20.94T68,87.56c-1,7-2,13.83-3,20.22a23.51,23.51,0,0,0-.61,3c-.92,5.27-1.78,10.49-2.76,15.36L61,129.81c-.12.64-.23,1.18-.35,1.71l-.34,1.63-1.33,6.21c-1.23,5.8-2.61,11.56-4.22,17.39-4.65,16.6-12,31.46-20.37,45.93C31,208.39,28,214.2,24,219.63c-1.62,2.3-3.51,4.43-5.25,6.6s-3.51,4.23-5,6.31c-4.13,5.8-7.89,11.06-11.86,16.14-.24.31-.18.45.11.33a1.78,1.78,0,0,0,.84-.66,149.29,149.29,0,0,0,11.49-16A132,132,0,0,0,34.85,202.6C40,194.78,45.21,187.42,48.89,178.4Z"/></g><g class="cls-1"><path class="cls-2" d="M234.23,51.92a85.61,85.61,0,0,0-5.66,9.71c-1.71,3.42-3.28,7-4.79,10.69s-3,7.48-4.43,11.38-3,7.92-4.56,11.9c-6.27,16-13.23,31.88-20.5,47.9a.46.46,0,0,1,.25.29,5.72,5.72,0,0,1-.88,3.56l-5.84,10.3q-4.55,9.9-8.76,19.79c2.32-5.25,4.69-10.46,7.2-15.58.69-1.56,1.69-2.6,2.18-2.2s.31,2-.42,3.6c-1.59,3.53-3.16,7.18-4.74,10.85-1.79,4.1-3.59,8.22-5.36,12.3-5.11,11.7-10.22,22.72-14.54,29.71q-3,7.68-5.92,15.3-1.5,3.95-3,7.88l-1.51,4-.38,1-.19.5-.17.19-.67.78c-3.1-9.37-6.68-19.66-10.38-30s-7.79-20.1-12.37-30.46l-.86-1.95-.22-.49-.14-.3-.28-.56-1.12-2.24-2.25-4.48q-2.28-4.52-4.55-9c-3-6-6.07-12-9-18.17a3,3,0,0,1-.43-1.76c0-.5.33-.44.65.08,3.16,5.88,6.41,11.77,9.69,17.69l4.91,8.91c1.64,3,3.24,5.93,4.89,9.09,4.57,9.71,8.66,18.48,12.2,27.55s6.89,17.73,9.69,25.69l.39-.09.2,0c.06,0,.12,0,.2-.25l.92-2.53,1.8-5L159,218c2.33-6.25,4.62-12.27,6.92-18.15,1.11-2.82,2.22-5.61,3.33-8.4-3.78,7.28-7.19,13.88-10.39,20.26a26.21,26.21,0,0,1-1.32,5.07q-2.26,6.28-4.54,12.58a2.6,2.6,0,0,1,.09.81,12.69,12.69,0,0,1-.36,2.41c-.17.35-.41.57-.68.57-.06-.16-.12-.37-.19-.6-.79-2.66-1.6-5.32-2.47-8s-1.71-5.41-2.6-8.13c-1.76-5.45-3.59-10.94-5.43-16.35a7.74,7.74,0,0,1-.24-.77c-1.25-3.12-2.5-6.31-3.82-9.49l-4-9.57c-2.1-4.88-4.22-9.79-6.27-14.75-4.14-9.9-8.06-20-11.42-30.47a197.56,197.56,0,0,1-7.51-32.52c-.43-2.78-.66-5.61-1-8.43-.12-1.41-.18-2.84-.27-4.26l-.13-2.13-.05-2.15a128.6,128.6,0,0,1,.69-17.29,4.19,4.19,0,0,1,.37-2.09c.28-.51.55-.38.63.28.19,0,.51-.12.51.09a147.47,147.47,0,0,0,2,24.91c1.29,8.13,3,16.2,5,24.66q2.07,8.74,4.73,17.19A89.06,89.06,0,0,1,119,116a153.87,153.87,0,0,1-3.53-22.64,84.06,84.06,0,0,1,1.19-22.52l-.38.57c.08-1.32.64-2.48,1.11-2.46s.65,1,.59,2.34a141.57,141.57,0,0,0,.85,18.54,175.58,175.58,0,0,0,2.92,18.33q1.94,9.09,4.57,18.06c1.79,6,3.79,11.91,5.91,17.84s4.39,11.85,6.72,17.79l3.54,8.92,1.78,4.47.74,1.84.57,1.37c3,7.25,5.72,14.06,7.79,20.28l.16.48.09.24,0,.06a.21.21,0,0,1,0-.06l.06-.15.43-1.19.85-2.36,1.64-4.62c1.12-3.16,2.18-6.1,3.23-8.9l1.56-4.12.77-2,1.55-3.85q6.28-15.63,13-31.12c1.28-3.09,3.19-5.26,4.22-4.77s.83,3.43-.44,6.56c-4.22,10.26-8.27,20.51-12.25,30.8l-2.69,7c-.8,2.11-1.59,4.22-2.39,6.34l-5,13.28-2.7,7.16-1.38,3.65-.7,1.84-.09.23,0,.12s0,.12,0,0l-.13-.41-.27-.81q-1.46-4.57-3.16-9.28c1.07,3.53,2.09,7.28,3.08,11.32l.34,1.37a1.46,1.46,0,0,0,.09.31l.11-.23.23-.46.92-1.84,1.91-3.7c4.07-11.05,7.89-20.71,12.35-30.88C180.11,152.71,192,128.76,201,101c2.2-6.72,4-13.09,5.54-19.28s3-12.25,4.85-18.28a93.83,93.83,0,0,1,7.39-18.1l1.32-2.24L220.8,42l.75-1.11,1.54-2.22c.54-.73,1.13-1.44,1.71-2.17a53.86,53.86,0,0,1,3.84-4.24c.68-.69,1.44-1.33,2.18-2s1.49-1.34,2.32-1.93a6.65,6.65,0,0,1,3.26-1.51c.29,0,.39.22.29.48a3.48,3.48,0,0,1-1,1.1l-2.25,1.81c-.71.63-1.39,1.29-2.07,1.93a53.22,53.22,0,0,0-3.8,4c-.61.67-1.13,1.41-1.68,2.11s-1.12,1.4-1.59,2.14c-1,1.47-2,2.89-2.79,4.39a90.87,90.87,0,0,0-7.85,18c-2,6.09-3.56,12.21-5.12,18.47s-3.24,12.63-5.14,19.23c-8.05,28-19.87,53.05-31.84,79.84l-2.63,6c1.62-3,3.5-6.52,5-9.12l4.75-8.31c9.83-22.51,20.33-44.33,29.59-67.45,1.8-4.49,3.48-9,5.1-13.45s3.16-8.89,4.82-13.2c3.32-8.59,7.14-17,12.87-23.89a10.06,10.06,0,0,1,2.24-2.13,2.44,2.44,0,0,1,1.88-.51C236,48.69,235.51,50.2,234.23,51.92ZM132.89,162.75c1.93,3.8,3.81,7.63,5.6,11.5-6.18-15.47-12.32-31-16.77-47.26C124,139.11,128.19,151.37,132.89,162.75Z"/><path class="cls-2" d="M135.73,140.85c2.22,8.88,5.47,18,9.94,25.63.22.36.46.54.54.28a1.75,1.75,0,0,0-.27-1.16c-4.3-7.29-7.44-16.18-9.54-24.68-.15-.51-.38-.89-.56-.87S135.62,140.42,135.73,140.85Z"/><path class="cls-2" d="M149,171.86l1.31,2.44a5.22,5.22,0,0,0,.58.54c.36.29.67.52.95.71a3.49,3.49,0,0,0,1.32.57,1,1,0,0,0,1.09-.45l0,0a1.16,1.16,0,0,0,0-.16l.06-.32.1-.49a1.88,1.88,0,0,1,.19-.55c.16-.26.37-.34.84-.83,10.36-23.27,20.92-45,29.76-68.84a187.6,187.6,0,0,0,7.37-23.15c.17-.63.07-1.07-.22-.93a2.51,2.51,0,0,0-.9,1.47c-8.76,30.89-24.12,60.7-36.94,90.94l-.06.14h-.07l0,0,0,0s0,.08,0,.24l0,.33a3.43,3.43,0,0,1,0,.47c-.08.51-.27,1.11-.85,1.26a1.79,1.79,0,0,1-1.21-.22,7.06,7.06,0,0,1-.9-.55l-.27-.2-.06-.05,0,0,0,0,0-.07-.33-.63L149.3,171c-.19-.34-.44-.47-.53-.28A2.21,2.21,0,0,0,149,171.86Z"/><path class="cls-2" d="M176.22,128.25c-3.17,8.4-6.33,16.75-9.72,25.06q-2.53,6.23-5.27,12.42-1.38,3.11-2.82,6.19l-.73,1.55-.18.38-.09.19c0,.07,0,0,0,.07l-.11.13c-.15.17-.29.32-.44.46a4.75,4.75,0,0,0-1.28,1.5,11.87,11.87,0,0,0-.7,3.18c-.11.71-.24,1.5-.38,2.35-.09.44-.17.87-.25,1.31l-.06.33c0,.09-.05.3-.06.26l-.11,0c-.34.09-.79-.24-1.3-1a14.4,14.4,0,0,1-1.46-3.63c0-.16-.14-.17-.26,0a1,1,0,0,0-.14.63,27.37,27.37,0,0,0,1.54,4.62,12.93,12.93,0,0,0,1.49,2.59l.09.11.05.05s0,0,0,0l0-.11.22-.88c.13-.56.27-1.12.41-1.68.23-1,.47-1.94.7-2.93a27.9,27.9,0,0,1,1.66-5c.3-.68.63-1.35,1-2q2-4.49,3.91-9c5.32-12.17,10.59-24.3,14.93-37,.21-.53.18-.92,0-1S176.39,127.78,176.22,128.25Z"/><path class="cls-2" d="M162.87,226.27,157,240l-2.92,7-1.46,3.55-.37.9a1.07,1.07,0,0,1-.17.31l-.16.24-.66,1c-3.58-12-7.59-24.45-11.68-36q-1.6-4.28-3.16-8.46c-1.1-2.72-2.24-5.34-3.4-8-2.35-5.28-4.84-10.47-7.51-15.75-.43-.78-.68-.83-.61-.21a9,9,0,0,0,.86,2.56,247.27,247.27,0,0,1,13.71,32.58c4,11.85,8,24.77,11.64,37.11l.69-1.17c.11-.21.22-.35.34-.62l.38-.91,1.51-3.64,3-7.23,6-14.3a12.11,12.11,0,0,0,1.05-4C164,224.28,163.51,224.81,162.87,226.27Z"/><path class="cls-2" d="M131,137.54q4.29,13.52,9.39,26.91l2.6,6.66,1.33,3.31.67,1.66.47,1.08c1.13,2.58,2.27,5,3.36,7,.78,2.46,1.57,4.91,2.35,7.36s1.55,4.75,2.26,6.67l.07.18c.18,1.16.45-1,.46-2.12a4.32,4.32,0,0,0-.09-1.26.33.33,0,0,0,0-.12s0-.07,0-.13l0-.19a3.85,3.85,0,0,0-.11-.57l-.06-.19c-.57-1.95-1.13-4.21-1.74-6.08a5.93,5.93,0,0,0,.16-.8c.63,1.49,1.18,2.94,1.68,4.37l.13.35.06.18s0-.14.08-.21l.33-.92.64-1.8,1.25-3.44,2.35-6.41a1.08,1.08,0,0,0-.15-1c-.21-.27-.45-.28-.56,0-.67,1.63-1.31,3.31-2,5.16l-1,2.92-.53,1.58-.28.83a.93.93,0,0,1-.06.18l-.06-.13-.1-.26c-.48-1.2-1.05-2.43-1.69-3.78a2.24,2.24,0,0,0-.2-.92c-.91-1.9-2-4-3.27-6.42l-.48-.94-.25-.48-.12-.25-.07-.12-.12-.28-2-4.73c-1.36-3.17-2.7-6.33-4-9.53a217.6,217.6,0,0,1-9.21-27.38c-1.24-4.57-2.24-9.11-3.22-13.68s-1.76-9.15-2.42-13.75c-1.09-7.26-2.5-14.44-2.57-21.85,0-6.22,1-12.45,1.07-18.1A164.41,164.41,0,0,1,126.85,44c.07-.44-.08-.56-.33-.3a1.84,1.84,0,0,0-.48,1.1,98.7,98.7,0,0,0-1.28,21.84,105.67,105.67,0,0,0,1.48,39.85C127.06,116.89,127.68,127,131,137.54Z"/></g><g class="cls-1"><path class="cls-3" d="M20.14,187.92c.17-.65.51-1.92.71-2.56.78-.12,1.85,1.48,3.07,2.44,1.42.31,2.7-1.77,2.11-2.22-1.49-2.57-4.9-5.56-7.1-5.94-.57-.54-.92,2.5-.08,4.82L20.66,186"/><path class="cls-4" d="M16.54,132.23c-.17-.43-.36-.83-.56-1.23-.38,1.09-.87,2.14-1.38,3.29-.26.58-.52,1.19-.78,1.84s-.45,1.35-.66,2.12c-.15,1.16,1.53.44,2.45-.45a8.87,8.87,0,0,0,1.82,3.44,29.06,29.06,0,0,1,2,2.48c-1.31-3.36-3.07-7-3.83-10.65Z"/><path class="cls-5" d="M25.35,79.87c-1.38,1.4-2.87,2.78-4.21,4.28a63.7,63.7,0,0,0-9.94,18.49q-.77,2.51-1.36,5c-.34,1.68-.53,3.37-.71,5-.08.84-.15,1.66-.19,2.49s0,1.65.08,2.47a41.47,41.47,0,0,0,.51,4.8,1.31,1.31,0,0,1,.37.6,87.2,87.2,0,0,1,4-22.17A52.71,52.71,0,0,1,25.09,81.42c.36-.08.9-1.19,1.46-2.43A3.06,3.06,0,0,0,25.35,79.87Z"/><path class="cls-6" d="M47.27,62.51c-.65-.06-1.92-.12-1.92-.12a24.86,24.86,0,0,1-3.28,4.11,37.93,37.93,0,0,1-3.6,3.57l-1,.86-1,.92-2,1.88c-.65.66-1.37,1.3-2,2s-1.28,1.52-1.93,2.34c-.62.66-2.53.23-4.11.87-.56,1.24-1.1,2.35-1.46,2.43a52.71,52.71,0,0,0-11.23,19.44A87.2,87.2,0,0,0,9.9,123c.21.63.13,1.38,0,.86a15.12,15.12,0,0,1,.12,2.24,4.59,4.59,0,0,1-1,3.21,22.12,22.12,0,0,0,.45-7l.1.07a41.47,41.47,0,0,1-.51-4.8c0-.82-.07-1.64-.08-2.47s.11-1.65.19-2.49c.18-1.66.37-3.35.71-5s.85-3.33,1.36-5a63.7,63.7,0,0,1,9.94-18.49l-2.67,3.1-1.33,1.59-1.22,1.69c-.8,1.13-1.6,2.29-2.37,3.48s-1.41,2.45-2.08,3.71a45,45,0,0,0-5,16.82,92.61,92.61,0,0,1-.58,10.79,22.51,22.51,0,0,0-.52,3.49c0,1.13,0,2.21,0,3.29a22.93,22.93,0,0,1-.67,6.61A16.81,16.81,0,0,1,3.34,142c-.56,1-1.18,2-1.71,3.12a12.73,12.73,0,0,0-1.5,8c.44,2.07,2.05,2.36,2.57,4.37s-1.18,5-.7,5.72c1.27,4.06,4.13,6.76,6.86,9.95,1.08,1.26,1.93,3.1,2.75,3.06,1.63-.06,2.13-1.29,3.54,1.05.5-1.25-.08-3.61.72-3.64,1.36.77,2.29,2.43,3.43,3-.21-1.28-.43-2.56-.63-3.81a3.55,3.55,0,0,1-.18-1.35,16.37,16.37,0,0,1-.09-2.3l-.3-.32a16.49,16.49,0,0,0,.68-3.2c-.7-1-.24-3.12-1.34-3.65a1.51,1.51,0,0,0,.88-.21c-.18-.62-.42-1.29-.72-2.05.33-.54,1-1.61,1.41-2.14l-1.32-1.79A3.22,3.22,0,0,1,19.26,154a7.16,7.16,0,0,0-.91-2,5.38,5.38,0,0,0,1.5-2.61,8.78,8.78,0,0,1,.15-2.8,11.57,11.57,0,0,0-.28-2.1l-.31-.8a29.06,29.06,0,0,0-2-2.48,8.87,8.87,0,0,1-1.82-3.44c-.92.89-2.6,1.61-2.45.45.21-.77.42-1.47.66-2.12s.52-1.26.78-1.84c.51-1.15,1-2.2,1.38-3.29a9.47,9.47,0,0,1-1.46-4.39l1.19-.93-.05-1a11,11,0,0,1-.58-1.59,6.62,6.62,0,0,1-.14-1.52,5.8,5.8,0,0,1,1-3,35.73,35.73,0,0,1,.89-5.59c-.17-.73-.31-1.47-.42-2.14-.7-1,.77-2,1.63-2.48l.53-1.6c0-.91-.07-1.88-.07-2.84a16.17,16.17,0,0,1,.33-2.74,9,9,0,0,0-1-2.19,3,3,0,0,1,1.16,1.57c.49-1.65,1.29-3,3-3.29l0-1.5L23,95.41c.27-1.35.35-2.84.65-4.21a15.25,15.25,0,0,1,1.2-3.8c.06-.76-.27,3,1.66,1.75a9.07,9.07,0,0,0,2.28-2.49c.67-.94,1.27-2,2-2.83a9.8,9.8,0,0,1,1.64-1.53,11,11,0,0,0,1.4-1.81c6.46-11.65,17.68-21.21,30-26.38A77.62,77.62,0,0,0,47.27,62.51Z"/></g><g class="cls-1"><path class="cls-3" d="M128.57,241.5l-1.18-1.71c0-.77.93-1,1.53-1.74.32-1.13-.57-3.18-.86-2.83-1.44.19-3.26,2.23-3.68,4.11-.32.34,1.12,1.75,2.35,1.92l1-1"/><path class="cls-4" d="M101.25,232.24c-.22.16-.44.34-.66.52a40.63,40.63,0,0,0,3.26,3.05c.55.22.37-1.5,0-2.47,1.61-.68,2.24-2.34,3.25-3.28a62.48,62.48,0,0,1-5.56,3.16Z"/><path class="cls-5" d="M74.2,233.11l2.18,2.3c5.62,4.15,12.76,6.88,19.32,3.89a.89.89,0,0,1,.33-.38,54.27,54.27,0,0,1-11-1.07,21.83,21.83,0,0,1-9.89-5c0-.3-.64-.37-1.31-.47A1.29,1.29,0,0,0,74.2,233.11Z"/><path class="cls-6" d="M64.45,222.34l-.11,1.54A7.8,7.8,0,0,1,69,225.81a33.22,33.22,0,0,0,4.5,3.3c.35.29,0,2.08.26,3.23.67.1,1.29.17,1.31.47a21.83,21.83,0,0,0,9.89,5,54.27,54.27,0,0,0,11,1.07c.34-.21.7-.15.42,0a4.78,4.78,0,0,1,1.13-.17,1.4,1.4,0,0,1,1.5.91,5.76,5.76,0,0,0-3.42-.27l0-.1c-6.56,3-13.7.26-19.32-3.89,4,4.06,8.9,7.75,15,7.52a14.45,14.45,0,0,1,5.36-.05,8.27,8.27,0,0,0,3.3.45,4.87,4.87,0,0,1,3.17.9,17.07,17.07,0,0,1,2.78,3.64c.93,1.3,2,2.52,3.7,2.56,1-.12,1.34-1.64,2.35-1.76s2.27,2.2,2.67,1.89c2.06-.3,3.65-2.3,5.47-3.95.71-.65,1.69-.86,1.76-1.63.14-1.55-.41-2.43.87-3-.55-.87-1.75-1.11-1.68-1.88.52-1,1.41-1.36,1.83-2.19-.64-.27-1.29-.47-1.91-.69a1.31,1.31,0,0,1-.67-.27,6.13,6.13,0,0,1-1.12-.62l-.18.18a10.54,10.54,0,0,0-1.47-1.57c-.54.42-1.53-.59-1.9.34a2.67,2.67,0,0,0,0-.9,5.26,5.26,0,0,0-1,.21l-.89-1.85-1,.9a3.85,3.85,0,0,1-.72-1.89,2,2,0,0,0-1,.52,4.32,4.32,0,0,0-1.1-1.9,2.42,2.42,0,0,1-1.34-.55,2.28,2.28,0,0,0-1,0l-.41.22c-1,.94-1.64,2.6-3.25,3.28.34,1,.52,2.69,0,2.47a40.63,40.63,0,0,1-3.26-3.05c-.82.71-1.59,1.49-2.31,1.5,0,0-.2-.64-.35-1.15l-.51.07c-1.17,1-2.16,1.22-3,.16a21.35,21.35,0,0,1-2.76-.29c-.4.25-.79.48-1.15.67-.57.78-1-.44-1.13-1.19l-.8-.24a9.72,9.72,0,0,1-2.94.82,9,9,0,0,0-1.27,1.43,4.11,4.11,0,0,1,1-1.44c-.84-.09-1.47-.64-1.5-2.13l-.83.38-.12-.87c-1.44.2-3.17.93-4.33.57-.43.17,1.69-.67,1.12-2s-1.83-1.41-2.74-2.11a3,3,0,0,1-.77-.93,2.81,2.81,0,0,0-1-.52A29.21,29.21,0,0,1,58.49,215,42.87,42.87,0,0,0,64.45,222.34Z"/></g><g class="cls-1"><path class="cls-3" d="M217.73,117.05l-1.6,1.66c-.78,0-1.15-1.38-1.94-2.27-1.18-.48-3.14.74-2.75,1.16a8.31,8.31,0,0,0,4.5,5.44c.37.49,1.69-1.56,1.74-3.33l-1.15-1.41"/><path class="cls-4" d="M207.68,156.38a10.25,10.25,0,0,0,.41,1c.5-.7,1.1-1.35,1.73-2.07a14.93,14.93,0,0,0,1.9-2.52c.27-.78-1.47-.58-2.47-.12-.51-2.35-2.07-3.32-2.85-4.8.66,2.56,2,5.45,2.32,8.13Z"/><path class="cls-5" d="M200,194c1.18-.86,2.23-1.84,3.38-2.79a45.67,45.67,0,0,0,8.31-12.5c.46-1.16.86-2.32,1.21-3.49a20.7,20.7,0,0,0,.8-3.55,22.15,22.15,0,0,0,0-7.13,1.06,1.06,0,0,1-.31-.49c-.37,2.68-1.05,5.28-1.64,7.91-.34,1.3-.77,2.57-1.17,3.85a32.55,32.55,0,0,1-1.4,3.76c-.54,1.23-1.1,2.44-1.7,3.64s-1.36,2.31-2.1,3.44q-.56.84-1.14,1.65c-.41.54-.86,1-1.3,1.57-.9,1-1.84,2-2.84,2.95-.32,0-.71.79-1.11,1.68A2,2,0,0,0,200,194Z"/><path class="cls-6" d="M183.39,205.76l1.67.28a17.67,17.67,0,0,1,4.58-5.75c.94-.8,1.84-1.67,2.83-2.56a23,23,0,0,0,2.92-3c.47-.45,2.22.15,3.58-.15.4-.89.79-1.67,1.11-1.68,1-.95,1.94-1.93,2.84-2.95.44-.52.89-1,1.3-1.57s.77-1.09,1.14-1.65c.74-1.13,1.46-2.26,2.1-3.44s1.16-2.41,1.7-3.64a32.55,32.55,0,0,0,1.4-3.76c.4-1.28.83-2.55,1.17-3.85.59-2.63,1.27-5.23,1.64-7.91-.15-.49,0-1,.1-.6a7.57,7.57,0,0,1,.08-1.62,2.66,2.66,0,0,1,1.24-2.1,12.46,12.46,0,0,0-1,4.88l-.1-.07a22.15,22.15,0,0,1,0,7.13,20.7,20.7,0,0,1-.8,3.55c-.35,1.17-.75,2.33-1.21,3.49a45.67,45.67,0,0,1-8.31,12.5c.74-.64,1.5-1.29,2.24-2s1.41-1.42,2.1-2.15,1.37-1.5,2-2.27,1.22-1.63,1.8-2.48,1.13-1.72,1.66-2.61.92-1.86,1.33-2.82.77-2,1.09-3a32.37,32.37,0,0,0,.67-3.17,35.38,35.38,0,0,1,.45-4,29.69,29.69,0,0,1,.78-3.68,13.74,13.74,0,0,0,1.1-4.72,11,11,0,0,1,1.44-4.53c.95-1.55,2.56-2.61,4-3.92a7.92,7.92,0,0,0,2.9-5.29c0-1.51-1.51-2-1.61-3.47s2.28-3.24,2-3.83c-.2-3-2.24-5.38-3.93-8.07-.66-1.06-.91-2.49-1.7-2.61-1.56-.25-2.41.51-3-1.36-.85.77-1,2.51-1.82,2.39-1-.78-1.43-2.1-2.28-2.73-.23.93-.4,1.86-.6,2.76a2.23,2.23,0,0,1-.24,1,9.65,9.65,0,0,1-.59,1.61l.18.27a13.07,13.07,0,0,0-1.54,2.09c.41.79-.59,2.21.33,2.77a2,2,0,0,0-.91,0c0,.45.1,1,.18,1.54l-1.9,1.23.86,1.47a3.21,3.21,0,0,1-1.91,1,4.11,4.11,0,0,0,.48,1.56,4.51,4.51,0,0,0-2,1.54,5.26,5.26,0,0,1-.66,1.92,4.53,4.53,0,0,0-.06,1.51c.06.2.12.4.17.6.78,1.48,2.34,2.45,2.85,4.8,1-.46,2.74-.66,2.47.12a14.93,14.93,0,0,1-1.9,2.52c-.63.72-1.23,1.37-1.73,2.07.59,1.22,1.25,2.35,1.06,3.37l-1.25.45,0,.74c.75,1.7.82,3.15-.55,4.32-.28,1.3-.62,2.61-1,3.91a14,14,0,0,1,.34,1.63c.61.82-.76,1.33-1.58,1.54l-.48,1.1a13.74,13.74,0,0,1-.13,4.12,8.33,8.33,0,0,0,1.05,1.82,3.2,3.2,0,0,1-1.17-1.38,2.57,2.57,0,0,1-2.72,2l.06,1.14-1,.12c-.33,2-.18,4.4-1.1,5.91,0,.58,0-2.31-1.7-1.62s-2.21,2.41-3.38,3.56a6,6,0,0,1-1.36,1,5.56,5.56,0,0,0-1,1.29c-.27.52-.54,1.06-.84,1.58l-1,1.51c-.65,1-1.33,2-2,3s-1.54,1.87-2.33,2.78l-1.22,1.36-1.31,1.27c-.89.83-1.79,1.65-2.71,2.45s-2,1.47-2.94,2.17l-1.49,1-1.57.92c-1.06.61-2.11,1.18-3.17,1.74a63.31,63.31,0,0,0,5.9-2.76C179.38,208.28,181.39,207.19,183.39,205.76Z"/></g><g class="cls-1"><path class="cls-3" d="M99.5,30.78l1.43,1.7c-.07.77-1.27,1.06-2.1,1.78-.48,1.14.55,3.18.94,2.82a7.31,7.31,0,0,0,5-4.16c.45-.33-1.34-1.76-2.93-1.93l-1.3,1.06"/><path class="cls-4" d="M134.44,41.92a7.69,7.69,0,0,0,.88-.4,49.26,49.26,0,0,0-4-3.56c-.69-.3-.57,1.45-.19,2.47-2.12.42-3.05,2-4.41,2.84a67.62,67.62,0,0,1,7.39-2.37Z"/><path class="cls-5" d="M168.57,47.9c-.8-1-1.61-2.12-2.49-3.11-.84-.74-1.7-1.48-2.58-2.21s-1.82-1.34-2.76-2-1.89-1.25-2.88-1.78-2-1-3-1.42a24.24,24.24,0,0,0-6.33-1.74,20.59,20.59,0,0,0-6.46.19.86.86,0,0,1-.45.31l3.57.67,1.78.35,1.75.44c1.16.31,2.33.62,3.48,1s2.27.8,3.38,1.25a35.19,35.19,0,0,1,6.39,3.31,29.08,29.08,0,0,1,2.89,2.21,21.39,21.39,0,0,1,2.65,2.57c0,.32.72.63,1.55.93A1.77,1.77,0,0,0,168.57,47.9Z"/><path class="cls-6" d="M179.28,62.83l.29-1.61a11.91,11.91,0,0,1-3-1.65,15.92,15.92,0,0,1-2.4-2.18c-.74-.83-1.5-1.67-2.34-2.53a26.74,26.74,0,0,0-2.77-2.58c-.41-.41.18-2.15-.07-3.44-.83-.3-1.55-.61-1.55-.93a21.39,21.39,0,0,0-2.65-2.57,29.08,29.08,0,0,0-2.89-2.21,35.19,35.19,0,0,0-6.39-3.31c-1.11-.45-2.24-.87-3.38-1.25s-2.32-.65-3.48-1l-1.75-.44-1.78-.35-3.57-.67c-.44.14-.91,0-.54-.09a6.45,6.45,0,0,1-1.47,0,2.09,2.09,0,0,1-1.86-1.19,9.72,9.72,0,0,0,4.39.89l-.07.09a20.59,20.59,0,0,1,6.46-.19,24.24,24.24,0,0,1,6.33,1.74c1,.43,2,.91,3,1.42s1.94,1.16,2.88,1.78,1.89,1.26,2.76,2,1.74,1.47,2.58,2.21a41.78,41.78,0,0,0-7.92-7.49,30,30,0,0,0-4.87-2.7,25.15,25.15,0,0,0-5.52-1.53,20.46,20.46,0,0,1-3.59-.29c-.58-.1-1.15-.22-1.7-.36s-1.09-.23-1.59-.37A14.31,14.31,0,0,0,136.68,31a7.76,7.76,0,0,1-4-1.37,20.53,20.53,0,0,1-3.38-4c-1.13-1.41-2.47-2.79-4.65-3-1.36,0-1.85,1.52-3.18,1.55a3.36,3.36,0,0,1-2-1.17c-.61-.55-1.12-1.07-1.38-.92-2.72.21-4.9,2-7.37,3.63-1,.62-2.26.81-2.4,1.58-.27,1.55.38,2.44-1.32,3,.67.89,2.21,1.15,2.08,1.92-.74,1-1.93,1.33-2.52,2.15.82.28,1.65.5,2.45.74a1.82,1.82,0,0,1,.85.28,7.67,7.67,0,0,1,1.42.66l.26-.17a12,12,0,0,0,1.82,1.63c.72-.37,2,.7,2.48-.2a2.35,2.35,0,0,0,0,.9,9.59,9.59,0,0,0,1.39-.15l1,1.88c.44-.3,1.35-.81,1.35-.81a3.48,3.48,0,0,1,.81,2,3,3,0,0,0,1.41-.43,4.2,4.2,0,0,0,1.31,2,3.5,3.5,0,0,1,1.7.7,3.67,3.67,0,0,0,1.35.11l.55-.17c1.36-.81,2.29-2.42,4.41-2.84-.38-1-.5-2.77.19-2.47a49.26,49.26,0,0,1,4,3.56c1.11-.55,2.14-1.2,3.07-1.08l.37,1.22h.67c1.57-.79,2.84-.77,3.88.48q.88.15,1.77.36c.58.16,1.16.34,1.73.53.52-.16,1-.29,1.5-.4.78-.65,1.2.66,1.37,1.45.34.12.66.29,1,.44a15.85,15.85,0,0,1,3.76-.06,8.59,8.59,0,0,0,1.71-1.14,3.58,3.58,0,0,1-1.3,1.23,2.29,2.29,0,0,1,1.72,2.61l1.06-.14c0,.23.06.58.09.93,1.85.14,4,0,5.41.71.54,0-2.14.17-1.54,1.76s2.18,2,3.21,3.06a5.09,5.09,0,0,1,.86,1.22,4.47,4.47,0,0,0,1.19.86,41.55,41.55,0,0,1,18.48,17.75,56.08,56.08,0,0,0-2.63-5.26l-1.59-2.57-.86-1.33C179.92,63.73,179.61,63.28,179.28,62.83Z"/></g></g></g></svg>